# MagicaVoxel @ Ephtracy

# group
o 

# material
mtllib airport_signs_01.mtl
usemtl palette

# normals
vn -1 0 0
vn 1 0 0
vn 0 0 1
vn 0 0 -1
vn 0 -1 0
vn 0 1 0

# texcoords
vt 0.912109 0.5
vt 0.978516 0.5

# verts
v -1.5 0 -0.4
v -1.5 0 -0.5
v -1.5 1 -0.4
v -1.5 1 -0.5
v 1.5 0 -0.4
v 1.5 0 -0.5
v 1.5 1 -0.4
v 1.5 1 -0.5
v -1.5 0 -0.4
v -1.5 1 -0.4
v 0.8 0.4 -0.4
v 0.8 0.6 -0.4
v 1.1 0.2 -0.4
v 1.1 0.4 -0.4
v 1.1 0.6 -0.4
v 1.1 0.8 -0.4
v 1.2 0.2 -0.4
v 1.2 0.3 -0.4
v 1.2 0.7 -0.4
v 1.2 0.8 -0.4
v 1.3 0.3 -0.4
v 1.3 0.4 -0.4
v 1.3 0.6 -0.4
v 1.3 0.7 -0.4
v 1.4 0.4 -0.4
v 1.4 0.6 -0.4
v 1.5 0 -0.4
v 1.5 1 -0.4
v -1.5 0 -0.5
v -1.5 1 -0.5
v 0.8 0.4 -0.5
v 0.8 0.6 -0.5
v 1.1 0.2 -0.5
v 1.1 0.4 -0.5
v 1.1 0.6 -0.5
v 1.1 0.8 -0.5
v 1.2 0.2 -0.5
v 1.2 0.3 -0.5
v 1.2 0.7 -0.5
v 1.2 0.8 -0.5
v 1.3 0.3 -0.5
v 1.3 0.4 -0.5
v 1.3 0.6 -0.5
v 1.3 0.7 -0.5
v 1.4 0.4 -0.5
v 1.4 0.6 -0.5
v 1.5 0 -0.5
v 1.5 1 -0.5
v -1.5 0 -0.4
v 1.5 0 -0.4
v -1.5 0 -0.5
v 1.5 0 -0.5
v -1.5 1 -0.4
v 1.5 1 -0.4
v -1.5 1 -0.5
v 1.5 1 -0.5

# faces
f 3/2/1 2/2/1 1/2/1
f 4/2/1 2/2/1 3/2/1
f 5/2/2 6/2/2 7/2/2
f 7/2/2 6/2/2 8/2/2
f 11/2/3 10/2/3 9/2/3
f 12/2/3 10/2/3 11/2/3
f 13/2/3 11/2/3 9/2/3
f 14/1/3 12/1/3 11/1/3
f 14/2/3 11/2/3 13/2/3
f 15/2/3 10/2/3 12/2/3
f 15/1/3 12/1/3 14/1/3
f 16/2/3 10/2/3 15/2/3
f 17/1/3 14/1/3 13/1/3
f 17/2/3 13/2/3 9/2/3
f 17/1/3 16/1/3 15/1/3
f 17/1/3 15/1/3 14/1/3
f 18/1/3 16/1/3 17/1/3
f 19/1/3 16/1/3 18/1/3
f 20/2/3 10/2/3 16/2/3
f 20/1/3 16/1/3 19/1/3
f 21/1/3 19/1/3 18/1/3
f 21/2/3 18/2/3 17/2/3
f 22/1/3 19/1/3 21/1/3
f 23/1/3 19/1/3 22/1/3
f 24/2/3 20/2/3 19/2/3
f 24/1/3 19/1/3 23/1/3
f 25/1/3 23/1/3 22/1/3
f 25/2/3 22/2/3 21/2/3
f 26/2/3 24/2/3 23/2/3
f 26/1/3 23/1/3 25/1/3
f 27/2/3 17/2/3 9/2/3
f 27/2/3 21/2/3 17/2/3
f 27/2/3 26/2/3 25/2/3
f 27/2/3 25/2/3 21/2/3
f 28/2/3 10/2/3 20/2/3
f 28/2/3 26/2/3 27/2/3
f 28/2/3 24/2/3 26/2/3
f 28/2/3 20/2/3 24/2/3
f 29/2/4 30/2/4 31/2/4
f 31/2/4 30/2/4 32/2/4
f 29/2/4 31/2/4 33/2/4
f 31/1/4 32/1/4 34/1/4
f 33/2/4 31/2/4 34/2/4
f 32/2/4 30/2/4 35/2/4
f 34/1/4 32/1/4 35/1/4
f 35/2/4 30/2/4 36/2/4
f 33/1/4 34/1/4 37/1/4
f 29/2/4 33/2/4 37/2/4
f 35/1/4 36/1/4 37/1/4
f 34/1/4 35/1/4 37/1/4
f 37/1/4 36/1/4 38/1/4
f 38/1/4 36/1/4 39/1/4
f 36/2/4 30/2/4 40/2/4
f 39/1/4 36/1/4 40/1/4
f 38/1/4 39/1/4 41/1/4
f 37/2/4 38/2/4 41/2/4
f 41/1/4 39/1/4 42/1/4
f 42/1/4 39/1/4 43/1/4
f 39/2/4 40/2/4 44/2/4
f 43/1/4 39/1/4 44/1/4
f 42/1/4 43/1/4 45/1/4
f 41/2/4 42/2/4 45/2/4
f 43/2/4 44/2/4 46/2/4
f 45/1/4 43/1/4 46/1/4
f 29/2/4 37/2/4 47/2/4
f 37/2/4 41/2/4 47/2/4
f 45/2/4 46/2/4 47/2/4
f 41/2/4 45/2/4 47/2/4
f 40/2/4 30/2/4 48/2/4
f 47/2/4 46/2/4 48/2/4
f 46/2/4 44/2/4 48/2/4
f 44/2/4 40/2/4 48/2/4
f 51/2/5 50/2/5 49/2/5
f 52/2/5 50/2/5 51/2/5
f 53/2/6 54/2/6 55/2/6
f 55/2/6 54/2/6 56/2/6
