# MagicaVoxel @ Ephtracy

# group
o 

# material
mtllib plane_window_01.mtl
usemtl palette

# normals
vn -1 0 0
vn 1 0 0
vn 0 0 1
vn 0 0 -1
vn 0 -1 0
vn 0 1 0

# texcoords
vt 0.908203 0.5
vt 0.912109 0.5
vt 0.916016 0.5
vt 0.974609 0.5

# verts
v -0.5 0 0.2
v -0.5 0 0.1
v -0.5 0 -0.1
v -0.5 0.1 0.2
v -0.5 0.1 0.1
v -0.5 0.1 0
v -0.5 0.2 0.2
v -0.5 0.2 0.1
v -0.5 0.2 0
v -0.5 0.3 -0.1
v -0.5 0.3 -0.2
v -0.5 0.4 0.1
v -0.5 0.4 0
v -0.5 0.7 -0.2
v -0.5 0.7 -0.3
v -0.5 0.8 -0.1
v -0.5 0.8 -0.2
v -0.5 1.1 0.1
v -0.5 1.1 0
v -0.5 1.2 -0.1
v -0.5 1.2 -0.2
v -0.5 1.3 0
v -0.5 1.3 -0.1
v -0.5 1.3 -0.2
v -0.5 1.3 -0.3
v -0.5 1.4 0
v -0.5 1.4 -0.1
v -0.5 1.5 -0.1
v -0.5 1.5 -0.2
v -0.5 1.7 0.2
v -0.5 1.7 0.1
v -0.5 1.8 0
v -0.5 1.8 -0.1
v -0.5 1.9 0.3
v -0.5 1.9 0.2
v -0.5 1.9 0.1
v -0.5 2 0.3
v -0.5 2 0.2
v -0.5 2 0.1
v -0.5 2 0
v -0.4 0.1 0.1
v -0.4 0.1 0
v -0.4 0.2 0.1
v -0.4 0.2 0
v -0.4 0.8 -0.1
v -0.4 0.8 -0.2
v -0.4 1.2 -0.1
v -0.4 1.2 -0.2
v -0.4 1.3 0
v -0.4 1.3 -0.1
v -0.4 1.4 0
v -0.4 1.4 -0.1
v -0.4 1.9 0.2
v -0.4 1.9 0.1
v -0.4 2 0.2
v -0.4 2 0.1
v 0.2 0.6 0
v 0.2 0.6 -0.1
v 0.2 0.7 0
v 0.2 0.7 -0.1
v 0.2 1.2 0
v 0.2 1.2 -0.1
v 0.2 1.3 0.1
v 0.2 1.3 0
v 0.2 1.3 -0.1
v 0.2 1.4 0.1
v 0.2 1.4 0
v 0.3 0.7 0
v 0.3 0.7 -0.1
v 0.3 0.8 0
v 0.3 0.8 -0.1
v 0.3 1 0
v 0.3 1 -0.1
v 0.3 1.2 0
v 0.3 1.2 -0.1
v 0.4 0.8 0
v 0.4 0.8 -0.1
v 0.4 1 0
v 0.4 1 -0.1
v 0.4 1.1 0.1
v 0.4 1.1 0
v 0.4 1.3 0.1
v 0.4 1.3 0
v 0.4 1.4 -0.1
v 0.4 1.4 -0.2
v 0.4 1.5 -0.1
v 0.4 1.5 -0.2
v -0.4 0.8 0
v -0.4 0.8 -0.1
v -0.4 1 0
v -0.4 1 -0.1
v -0.4 1.1 0.1
v -0.4 1.1 0
v -0.4 1.3 0.1
v -0.4 1.3 0
v -0.4 1.4 -0.1
v -0.4 1.4 -0.2
v -0.4 1.5 -0.1
v -0.4 1.5 -0.2
v -0.3 0.7 0
v -0.3 0.7 -0.1
v -0.3 0.8 0
v -0.3 0.8 -0.1
v -0.3 1 0
v -0.3 1 -0.1
v -0.3 1.2 0
v -0.3 1.2 -0.1
v -0.2 0.6 0
v -0.2 0.6 -0.1
v -0.2 0.7 0
v -0.2 0.7 -0.1
v -0.2 1.2 0
v -0.2 1.2 -0.1
v -0.2 1.3 0.1
v -0.2 1.3 0
v -0.2 1.3 -0.1
v -0.2 1.4 0.1
v -0.2 1.4 0
v 0.4 0.1 0.1
v 0.4 0.1 0
v 0.4 0.2 0.1
v 0.4 0.2 0
v 0.4 0.8 -0.1
v 0.4 0.8 -0.2
v 0.4 1.2 -0.1
v 0.4 1.2 -0.2
v 0.4 1.3 0
v 0.4 1.3 -0.1
v 0.4 1.4 0
v 0.4 1.4 -0.1
v 0.4 1.9 0.2
v 0.4 1.9 0.1
v 0.4 2 0.2
v 0.4 2 0.1
v 0.5 0 0.2
v 0.5 0 0.1
v 0.5 0 -0.1
v 0.5 0.1 0.2
v 0.5 0.1 0.1
v 0.5 0.1 0
v 0.5 0.2 0.2
v 0.5 0.2 0.1
v 0.5 0.2 0
v 0.5 0.3 -0.1
v 0.5 0.3 -0.2
v 0.5 0.4 0.1
v 0.5 0.4 0
v 0.5 0.7 -0.2
v 0.5 0.7 -0.3
v 0.5 0.8 -0.1
v 0.5 0.8 -0.2
v 0.5 1.1 0.1
v 0.5 1.1 0
v 0.5 1.2 -0.1
v 0.5 1.2 -0.2
v 0.5 1.3 0
v 0.5 1.3 -0.1
v 0.5 1.3 -0.2
v 0.5 1.3 -0.3
v 0.5 1.4 0
v 0.5 1.4 -0.1
v 0.5 1.5 -0.1
v 0.5 1.5 -0.2
v 0.5 1.7 0.2
v 0.5 1.7 0.1
v 0.5 1.8 0
v 0.5 1.8 -0.1
v 0.5 1.9 0.3
v 0.5 1.9 0.2
v 0.5 1.9 0.1
v 0.5 2 0.3
v 0.5 2 0.2
v 0.5 2 0.1
v 0.5 2 0
v -0.5 1.9 0.3
v -0.5 2 0.3
v 0.5 1.9 0.3
v 0.5 2 0.3
v -0.5 0 0.2
v -0.5 0.1 0.2
v -0.5 0.2 0.2
v -0.5 1.7 0.2
v -0.5 1.9 0.2
v 0.5 0 0.2
v 0.5 0.1 0.2
v 0.5 0.2 0.2
v 0.5 1.7 0.2
v 0.5 1.9 0.2
v -0.5 0.2 0.1
v -0.5 0.4 0.1
v -0.5 1.1 0.1
v -0.5 1.7 0.1
v -0.5 1.9 0.1
v -0.5 2 0.1
v -0.4 1.1 0.1
v -0.4 1.3 0.1
v -0.4 1.9 0.1
v -0.4 2 0.1
v -0.3 1.3 0.1
v -0.3 1.4 0.1
v -0.2 1.3 0.1
v -0.2 1.4 0.1
v -0.2 1.5 0.1
v 0.2 1.3 0.1
v 0.2 1.4 0.1
v 0.2 1.5 0.1
v 0.3 1.3 0.1
v 0.3 1.4 0.1
v 0.4 1.1 0.1
v 0.4 1.3 0.1
v 0.4 1.9 0.1
v 0.4 2 0.1
v 0.5 0.2 0.1
v 0.5 0.4 0.1
v 0.5 1.1 0.1
v 0.5 1.7 0.1
v 0.5 1.9 0.1
v 0.5 2 0.1
v -0.5 0.1 0
v -0.5 0.2 0
v -0.5 0.4 0
v -0.5 1.1 0
v -0.4 0.1 0
v -0.4 0.2 0
v -0.4 0.8 0
v -0.4 1 0
v -0.4 1.1 0
v -0.4 1.3 0
v -0.3 0.7 0
v -0.3 0.8 0
v -0.3 1 0
v -0.3 1.2 0
v -0.3 1.3 0
v -0.2 0.6 0
v -0.2 0.7 0
v -0.2 1.2 0
v -0.2 1.3 0
v -0.2 1.4 0
v 0.2 0.6 0
v 0.2 0.7 0
v 0.2 1.2 0
v 0.2 1.3 0
v 0.2 1.4 0
v 0.3 0.7 0
v 0.3 0.8 0
v 0.3 1 0
v 0.3 1.2 0
v 0.3 1.3 0
v 0.4 0.1 0
v 0.4 0.2 0
v 0.4 0.8 0
v 0.4 1 0
v 0.4 1.1 0
v 0.4 1.3 0
v 0.5 0.1 0
v 0.5 0.2 0
v 0.5 0.4 0
v 0.5 1.1 0
v -0.5 1.3 -0.1
v -0.5 1.4 -0.1
v -0.4 0.8 -0.1
v -0.4 1 -0.1
v -0.4 1.3 -0.1
v -0.4 1.4 -0.1
v -0.3 0.7 -0.1
v -0.3 0.8 -0.1
v -0.3 1 -0.1
v -0.3 1.2 -0.1
v -0.2 0.6 -0.1
v -0.2 0.7 -0.1
v -0.2 0.9 -0.1
v -0.2 1 -0.1
v -0.2 1.2 -0.1
v -0.2 1.3 -0.1
v -0.1 0.9 -0.1
v -0.1 1 -0.1
v -0.1 1.1 -0.1
v 0 1 -0.1
v 0 1.1 -0.1
v 0 1.2 -0.1
v 0.1 0.8 -0.1
v 0.1 0.9 -0.1
v 0.1 1.1 -0.1
v 0.1 1.2 -0.1
v 0.2 0.6 -0.1
v 0.2 0.7 -0.1
v 0.2 0.8 -0.1
v 0.2 0.9 -0.1
v 0.2 1 -0.1
v 0.2 1.2 -0.1
v 0.2 1.3 -0.1
v 0.3 0.7 -0.1
v 0.3 0.8 -0.1
v 0.3 0.9 -0.1
v 0.3 1 -0.1
v 0.3 1.2 -0.1
v 0.4 0.8 -0.1
v 0.4 1 -0.1
v 0.4 1.3 -0.1
v 0.4 1.4 -0.1
v 0.5 1.3 -0.1
v 0.5 1.4 -0.1
v -0.5 0.8 -0.2
v -0.5 1.2 -0.2
v -0.4 0.8 -0.2
v -0.4 1.2 -0.2
v 0.4 0.8 -0.2
v 0.4 1.2 -0.2
v 0.5 0.8 -0.2
v 0.5 1.2 -0.2
v -0.5 1.9 0.2
v -0.5 2 0.2
v -0.4 1.9 0.2
v -0.4 2 0.2
v 0.4 1.9 0.2
v 0.4 2 0.2
v 0.5 1.9 0.2
v 0.5 2 0.2
v -0.5 0.1 0.1
v -0.5 0.2 0.1
v -0.4 0.1 0.1
v -0.4 0.2 0.1
v 0.4 0.1 0.1
v 0.4 0.2 0.1
v 0.5 0.1 0.1
v 0.5 0.2 0.1
v -0.5 1.3 0
v -0.5 1.4 0
v -0.5 1.8 0
v -0.5 2 0
v -0.4 1.3 0
v -0.4 1.4 0
v 0.4 1.3 0
v 0.4 1.4 0
v 0.5 1.3 0
v 0.5 1.4 0
v 0.5 1.8 0
v 0.5 2 0
v -0.5 0 -0.1
v -0.5 0.3 -0.1
v -0.5 0.8 -0.1
v -0.5 1.2 -0.1
v -0.5 1.5 -0.1
v -0.5 1.8 -0.1
v -0.4 0.8 -0.1
v -0.4 1.2 -0.1
v -0.4 1.4 -0.1
v -0.4 1.5 -0.1
v 0.4 0.8 -0.1
v 0.4 1.2 -0.1
v 0.4 1.4 -0.1
v 0.4 1.5 -0.1
v 0.5 0 -0.1
v 0.5 0.3 -0.1
v 0.5 0.8 -0.1
v 0.5 1.2 -0.1
v 0.5 1.5 -0.1
v 0.5 1.8 -0.1
v -0.5 0.3 -0.2
v -0.5 0.7 -0.2
v -0.5 1.3 -0.2
v -0.5 1.5 -0.2
v -0.4 0.5 -0.2
v -0.4 0.7 -0.2
v -0.4 1.3 -0.2
v -0.4 1.4 -0.2
v -0.4 1.5 -0.2
v -0.2 1.3 -0.2
v -0.1 0.7 -0.2
v -0.1 1.3 -0.2
v 0 0.7 -0.2
v 0.4 0.5 -0.2
v 0.4 0.7 -0.2
v 0.4 1.3 -0.2
v 0.4 1.4 -0.2
v 0.4 1.5 -0.2
v 0.5 0.3 -0.2
v 0.5 0.7 -0.2
v 0.5 1.3 -0.2
v 0.5 1.5 -0.2
v -0.5 0.7 -0.3
v -0.5 1.3 -0.3
v -0.4 0.7 -0.3
v -0.4 1.3 -0.3
v -0.3 0.9 -0.3
v -0.3 1 -0.3
v -0.2 0.8 -0.3
v -0.2 0.9 -0.3
v -0.2 1 -0.3
v -0.2 1.2 -0.3
v -0.2 1.3 -0.3
v -0.1 0.7 -0.3
v -0.1 0.8 -0.3
v -0.1 0.9 -0.3
v -0.1 1.1 -0.3
v -0.1 1.2 -0.3
v -0.1 1.3 -0.3
v 0 0.7 -0.3
v 0 0.8 -0.3
v 0 1 -0.3
v 0 1.1 -0.3
v 0 1.2 -0.3
v 0.1 0.9 -0.3
v 0.1 1 -0.3
v 0.1 1.1 -0.3
v 0.2 0.8 -0.3
v 0.2 0.9 -0.3
v 0.2 1 -0.3
v 0.3 0.8 -0.3
v 0.3 0.9 -0.3
v 0.4 0.7 -0.3
v 0.4 1.3 -0.3
v 0.5 0.7 -0.3
v 0.5 1.3 -0.3
v -0.5 0 0.2
v 0.5 0 0.2
v -0.5 0 0.1
v -0.4 0 0.1
v 0.4 0 0.1
v 0.5 0 0.1
v -0.4 0 0
v 0.4 0 0
v -0.5 0 -0.1
v 0.5 0 -0.1
v -0.5 0.2 0.1
v -0.4 0.2 0.1
v 0.4 0.2 0.1
v 0.5 0.2 0.1
v -0.5 0.2 0
v -0.4 0.2 0
v 0.4 0.2 0
v 0.5 0.2 0
v -0.5 0.3 -0.1
v 0.5 0.3 -0.1
v -0.5 0.3 -0.2
v 0.5 0.3 -0.2
v -0.5 0.7 -0.2
v -0.4 0.7 -0.2
v -0.1 0.7 -0.2
v 0 0.7 -0.2
v 0.4 0.7 -0.2
v 0.5 0.7 -0.2
v -0.5 0.7 -0.3
v -0.4 0.7 -0.3
v -0.1 0.7 -0.3
v 0 0.7 -0.3
v 0.4 0.7 -0.3
v 0.5 0.7 -0.3
v -0.4 1 0
v -0.3 1 0
v 0.3 1 0
v 0.4 1 0
v -0.4 1 -0.1
v -0.3 1 -0.1
v 0.3 1 -0.1
v 0.4 1 -0.1
v -0.5 1.1 0.1
v -0.4 1.1 0.1
v 0.4 1.1 0.1
v 0.5 1.1 0.1
v -0.5 1.1 0
v -0.4 1.1 0
v 0.4 1.1 0
v 0.5 1.1 0
v -0.3 1.2 0
v -0.2 1.2 0
v 0.2 1.2 0
v 0.3 1.2 0
v -0.5 1.2 -0.1
v -0.4 1.2 -0.1
v -0.3 1.2 -0.1
v -0.2 1.2 -0.1
v 0.2 1.2 -0.1
v 0.3 1.2 -0.1
v 0.4 1.2 -0.1
v 0.5 1.2 -0.1
v -0.5 1.2 -0.2
v -0.4 1.2 -0.2
v 0.4 1.2 -0.2
v 0.5 1.2 -0.2
v -0.4 1.3 0.1
v -0.3 1.3 0.1
v -0.2 1.3 0.1
v 0.2 1.3 0.1
v 0.3 1.3 0.1
v 0.4 1.3 0.1
v -0.4 1.3 0
v -0.3 1.3 0
v -0.2 1.3 0
v 0.2 1.3 0
v 0.3 1.3 0
v 0.4 1.3 0
v -0.2 1.3 -0.1
v 0.2 1.3 -0.1
v -0.2 1.4 0.1
v 0.2 1.4 0.1
v -0.5 1.4 0
v -0.4 1.4 0
v -0.2 1.4 0
v 0.2 1.4 0
v 0.4 1.4 0
v 0.5 1.4 0
v -0.5 1.4 -0.1
v -0.4 1.4 -0.1
v 0.4 1.4 -0.1
v 0.5 1.4 -0.1
v -0.5 1.7 0.2
v 0.5 1.7 0.2
v -0.5 1.7 0.1
v 0.5 1.7 0.1
v -0.5 1.9 0.3
v 0.5 1.9 0.3
v -0.5 1.9 0.2
v 0.5 1.9 0.2
v -0.5 0.1 0.1
v -0.4 0.1 0.1
v 0.4 0.1 0.1
v 0.5 0.1 0.1
v -0.5 0.1 0
v -0.4 0.1 0
v 0.4 0.1 0
v 0.5 0.1 0
v -0.5 0.2 0.2
v 0.5 0.2 0.2
v -0.5 0.2 0.1
v 0.5 0.2 0.1
v -0.5 0.4 0.1
v 0.5 0.4 0.1
v -0.5 0.4 0
v 0.5 0.4 0
v -0.2 0.6 0
v 0.2 0.6 0
v -0.2 0.6 -0.1
v 0.2 0.6 -0.1
v -0.3 0.7 0
v -0.2 0.7 0
v 0.2 0.7 0
v 0.3 0.7 0
v -0.3 0.7 -0.1
v -0.2 0.7 -0.1
v 0.2 0.7 -0.1
v 0.3 0.7 -0.1
v -0.4 0.8 0
v -0.3 0.8 0
v 0.3 0.8 0
v 0.4 0.8 0
v -0.5 0.8 -0.1
v -0.4 0.8 -0.1
v -0.3 0.8 -0.1
v 0.3 0.8 -0.1
v 0.4 0.8 -0.1
v 0.5 0.8 -0.1
v -0.5 0.8 -0.2
v -0.4 0.8 -0.2
v 0.4 0.8 -0.2
v 0.5 0.8 -0.2
v -0.5 1.3 0
v -0.4 1.3 0
v 0.4 1.3 0
v 0.5 1.3 0
v -0.5 1.3 -0.1
v -0.4 1.3 -0.1
v 0.4 1.3 -0.1
v 0.5 1.3 -0.1
v -0.5 1.3 -0.2
v -0.4 1.3 -0.2
v -0.2 1.3 -0.2
v -0.1 1.3 -0.2
v 0.4 1.3 -0.2
v 0.5 1.3 -0.2
v -0.5 1.3 -0.3
v -0.4 1.3 -0.3
v -0.2 1.3 -0.3
v -0.1 1.3 -0.3
v 0.4 1.3 -0.3
v 0.5 1.3 -0.3
v -0.4 1.4 -0.1
v 0.4 1.4 -0.1
v -0.4 1.4 -0.2
v 0.4 1.4 -0.2
v -0.5 1.5 -0.1
v -0.4 1.5 -0.1
v 0.4 1.5 -0.1
v 0.5 1.5 -0.1
v -0.5 1.5 -0.2
v -0.4 1.5 -0.2
v 0.4 1.5 -0.2
v 0.5 1.5 -0.2
v -0.5 1.8 0
v 0.5 1.8 0
v -0.5 1.8 -0.1
v 0.5 1.8 -0.1
v -0.5 1.9 0.2
v -0.4 1.9 0.2
v 0.4 1.9 0.2
v 0.5 1.9 0.2
v -0.5 1.9 0.1
v -0.4 1.9 0.1
v 0.4 1.9 0.1
v 0.5 1.9 0.1
v -0.5 2 0.3
v 0.5 2 0.3
v -0.5 2 0.2
v -0.4 2 0.2
v -0.3 2 0.2
v 0.3 2 0.2
v 0.4 2 0.2
v 0.5 2 0.2
v -0.5 2 0.1
v -0.4 2 0.1
v -0.3 2 0.1
v 0.3 2 0.1
v 0.4 2 0.1
v 0.5 2 0.1
v -0.5 2 0
v 0.5 2 0

# faces
f 4/4/1 2/4/1 1/4/1
f 5/1/1 3/1/1 2/1/1
f 5/4/1 2/4/1 4/4/1
f 6/1/1 3/1/1 5/1/1
f 7/1/1 5/1/1 4/1/1
f 8/1/1 5/1/1 7/1/1
f 9/1/1 3/1/1 6/1/1
f 10/1/1 9/1/1 8/1/1
f 10/1/1 3/1/1 9/1/1
f 12/1/1 10/1/1 8/1/1
f 12/1/1 11/1/1 10/1/1
f 13/1/1 11/1/1 12/1/1
f 14/1/1 11/1/1 13/1/1
f 16/1/1 14/1/1 13/1/1
f 16/1/1 15/1/1 14/1/1
f 17/1/1 15/1/1 16/1/1
f 19/1/1 16/1/1 13/1/1
f 20/1/1 16/1/1 19/1/1
f 20/1/1 19/1/1 18/1/1
f 21/1/1 15/1/1 17/1/1
f 22/1/1 20/1/1 18/1/1
f 22/1/1 21/1/1 20/1/1
f 23/1/1 21/1/1 22/1/1
f 24/1/1 15/1/1 21/1/1
f 24/1/1 21/1/1 23/1/1
f 25/1/1 15/1/1 24/1/1
f 26/1/1 22/1/1 18/1/1
f 27/1/1 24/1/1 23/1/1
f 28/1/1 24/1/1 27/1/1
f 28/1/1 27/1/1 26/1/1
f 29/1/1 24/1/1 28/1/1
f 31/1/1 26/1/1 18/1/1
f 31/1/1 28/1/1 26/1/1
f 32/1/1 28/1/1 31/1/1
f 32/1/1 31/1/1 30/1/1
f 33/1/1 28/1/1 32/1/1
f 35/1/1 32/1/1 30/1/1
f 36/1/1 32/1/1 35/1/1
f 37/1/1 35/1/1 34/1/1
f 38/1/1 35/1/1 37/1/1
f 39/1/1 32/1/1 36/1/1
f 40/1/1 32/1/1 39/1/1
f 43/1/1 42/1/1 41/1/1
f 44/1/1 42/1/1 43/1/1
f 47/2/1 46/2/1 45/2/1
f 48/2/1 46/2/1 47/2/1
f 51/2/1 50/2/1 49/2/1
f 52/2/1 50/2/1 51/2/1
f 55/1/1 54/1/1 53/1/1
f 56/1/1 54/1/1 55/1/1
f 59/1/1 58/1/1 57/1/1
f 60/1/1 58/1/1 59/1/1
f 64/2/1 62/2/1 61/2/1
f 65/2/1 62/2/1 64/2/1
f 66/2/1 64/2/1 63/2/1
f 67/2/1 64/2/1 66/2/1
f 70/1/1 69/1/1 68/1/1
f 71/1/1 69/1/1 70/1/1
f 74/2/1 73/2/1 72/2/1
f 75/2/1 73/2/1 74/2/1
f 78/1/1 77/1/1 76/1/1
f 79/1/1 77/1/1 78/1/1
f 82/1/1 81/1/1 80/1/1
f 83/1/1 81/1/1 82/1/1
f 86/1/1 85/1/1 84/1/1
f 87/1/1 85/1/1 86/1/1
f 88/1/2 89/1/2 90/1/2
f 90/1/2 89/1/2 91/1/2
f 92/1/2 93/1/2 94/1/2
f 94/1/2 93/1/2 95/1/2
f 96/1/2 97/1/2 98/1/2
f 98/1/2 97/1/2 99/1/2
f 100/1/2 101/1/2 102/1/2
f 102/1/2 101/1/2 103/1/2
f 104/2/2 105/2/2 106/2/2
f 106/2/2 105/2/2 107/2/2
f 108/1/2 109/1/2 110/1/2
f 110/1/2 109/1/2 111/1/2
f 112/2/2 113/2/2 115/2/2
f 115/2/2 113/2/2 116/2/2
f 114/2/2 115/2/2 117/2/2
f 117/2/2 115/2/2 118/2/2
f 119/1/2 120/1/2 121/1/2
f 121/1/2 120/1/2 122/1/2
f 123/2/2 124/2/2 125/2/2
f 125/2/2 124/2/2 126/2/2
f 127/2/2 128/2/2 129/2/2
f 129/2/2 128/2/2 130/2/2
f 131/1/2 132/1/2 133/1/2
f 133/1/2 132/1/2 134/1/2
f 135/4/2 136/4/2 138/4/2
f 136/1/2 137/1/2 139/1/2
f 138/4/2 136/4/2 139/4/2
f 139/1/2 137/1/2 140/1/2
f 138/1/2 139/1/2 141/1/2
f 141/1/2 139/1/2 142/1/2
f 140/1/2 137/1/2 143/1/2
f 142/1/2 143/1/2 144/1/2
f 143/1/2 137/1/2 144/1/2
f 142/1/2 144/1/2 146/1/2
f 144/1/2 145/1/2 146/1/2
f 146/1/2 145/1/2 147/1/2
f 147/1/2 145/1/2 148/1/2
f 147/1/2 148/1/2 150/1/2
f 148/1/2 149/1/2 150/1/2
f 150/1/2 149/1/2 151/1/2
f 147/1/2 150/1/2 153/1/2
f 153/1/2 150/1/2 154/1/2
f 152/1/2 153/1/2 154/1/2
f 151/1/2 149/1/2 155/1/2
f 152/1/2 154/1/2 156/1/2
f 154/1/2 155/1/2 156/1/2
f 156/1/2 155/1/2 157/1/2
f 155/1/2 149/1/2 158/1/2
f 157/1/2 155/1/2 158/1/2
f 158/1/2 149/1/2 159/1/2
f 152/1/2 156/1/2 160/1/2
f 157/1/2 158/1/2 161/1/2
f 161/1/2 158/1/2 162/1/2
f 160/1/2 161/1/2 162/1/2
f 162/1/2 158/1/2 163/1/2
f 152/1/2 160/1/2 165/1/2
f 160/1/2 162/1/2 165/1/2
f 165/1/2 162/1/2 166/1/2
f 164/1/2 165/1/2 166/1/2
f 166/1/2 162/1/2 167/1/2
f 164/1/2 166/1/2 169/1/2
f 169/1/2 166/1/2 170/1/2
f 168/1/2 169/1/2 171/1/2
f 171/1/2 169/1/2 172/1/2
f 170/1/2 166/1/2 173/1/2
f 173/1/2 166/1/2 174/1/2
f 177/1/3 176/1/3 175/1/3
f 178/1/3 176/1/3 177/1/3
f 184/4/3 180/4/3 179/4/3
f 185/1/3 181/1/3 180/1/3
f 185/4/3 180/4/3 184/4/3
f 186/1/3 181/1/3 185/1/3
f 187/1/3 183/1/3 182/1/3
f 188/1/3 183/1/3 187/1/3
f 195/1/3 192/1/3 191/1/3
f 196/1/3 192/1/3 195/1/3
f 197/1/3 194/1/3 193/1/3
f 198/1/3 194/1/3 197/1/3
f 199/1/3 192/1/3 196/1/3
f 200/1/3 192/1/3 199/1/3
f 201/2/3 200/2/3 199/2/3
f 202/1/3 192/1/3 200/1/3
f 202/2/3 200/2/3 201/2/3
f 203/1/3 192/1/3 202/1/3
f 205/2/3 203/2/3 202/2/3
f 206/1/3 192/1/3 203/1/3
f 206/2/3 203/2/3 205/2/3
f 207/2/3 205/2/3 204/2/3
f 208/1/3 206/1/3 205/1/3
f 208/2/3 205/2/3 207/2/3
f 210/1/3 208/1/3 207/1/3
f 213/1/3 190/1/3 189/1/3
f 214/1/3 190/1/3 213/1/3
f 215/1/3 210/1/3 209/1/3
f 216/1/3 192/1/3 206/1/3
f 216/1/3 210/1/3 215/1/3
f 216/1/3 206/1/3 208/1/3
f 216/1/3 208/1/3 210/1/3
f 217/1/3 212/1/3 211/1/3
f 218/1/3 212/1/3 217/1/3
f 223/1/3 220/1/3 219/1/3
f 224/1/3 220/1/3 223/1/3
f 225/1/3 222/1/3 221/1/3
f 226/1/3 222/1/3 225/1/3
f 227/1/3 222/1/3 226/1/3
f 229/1/3 225/1/3 221/1/3
f 230/1/3 225/1/3 229/1/3
f 231/2/3 228/2/3 227/2/3
f 231/2/3 227/2/3 226/2/3
f 232/2/3 228/2/3 231/2/3
f 233/2/3 228/2/3 232/2/3
f 234/1/3 229/1/3 221/1/3
f 235/1/3 229/1/3 234/1/3
f 236/2/3 233/2/3 232/2/3
f 237/2/3 233/2/3 236/2/3
f 239/1/3 234/1/3 221/1/3
f 242/2/3 238/2/3 237/2/3
f 243/2/3 238/2/3 242/2/3
f 244/1/3 240/1/3 239/1/3
f 247/2/3 242/2/3 241/2/3
f 248/2/3 242/2/3 247/2/3
f 251/1/3 245/1/3 244/1/3
f 252/2/3 247/2/3 246/2/3
f 252/2/3 248/2/3 247/2/3
f 253/2/3 248/2/3 252/2/3
f 254/2/3 248/2/3 253/2/3
f 255/1/3 250/1/3 249/1/3
f 256/1/3 250/1/3 255/1/3
f 257/1/3 239/1/3 221/1/3
f 257/1/3 244/1/3 239/1/3
f 257/1/3 251/1/3 244/1/3
f 257/1/3 253/1/3 252/1/3
f 257/1/3 252/1/3 251/1/3
f 258/1/3 253/1/3 257/1/3
f 263/1/3 260/1/3 259/1/3
f 264/1/3 260/1/3 263/1/3
f 266/2/3 262/2/3 261/2/3
f 267/2/3 262/2/3 266/2/3
f 270/2/3 266/2/3 265/2/3
f 270/2/3 268/2/3 267/2/3
f 270/2/3 267/2/3 266/2/3
f 271/2/3 268/2/3 270/2/3
f 272/2/3 268/2/3 271/2/3
f 273/2/3 268/2/3 272/2/3
f 275/2/3 270/2/3 269/2/3
f 275/2/3 271/2/3 270/2/3
f 275/3/3 272/3/3 271/3/3
f 276/2/3 274/2/3 273/2/3
f 276/3/3 272/3/3 275/3/3
f 276/2/3 273/2/3 272/2/3
f 277/2/3 274/2/3 276/2/3
f 278/2/3 276/2/3 275/2/3
f 278/3/3 277/3/3 276/3/3
f 279/2/3 274/2/3 277/2/3
f 279/3/3 277/3/3 278/3/3
f 280/2/3 274/2/3 279/2/3
f 281/2/3 275/2/3 269/2/3
f 281/2/3 278/2/3 275/2/3
f 281/2/3 279/2/3 278/2/3
f 282/2/3 279/2/3 281/2/3
f 283/3/3 280/3/3 279/3/3
f 283/2/3 279/2/3 282/2/3
f 284/2/3 274/2/3 280/2/3
f 284/3/3 280/3/3 283/3/3
f 285/2/3 281/2/3 269/2/3
f 286/2/3 281/2/3 285/2/3
f 287/3/3 282/3/3 281/3/3
f 287/2/3 281/2/3 286/2/3
f 288/2/3 283/2/3 282/2/3
f 288/3/3 282/3/3 287/3/3
f 288/2/3 284/2/3 283/2/3
f 289/2/3 284/2/3 288/2/3
f 290/2/3 274/2/3 284/2/3
f 290/2/3 284/2/3 289/2/3
f 291/2/3 274/2/3 290/2/3
f 292/2/3 287/2/3 286/2/3
f 292/2/3 288/2/3 287/2/3
f 293/2/3 288/2/3 292/2/3
f 294/3/3 289/3/3 288/3/3
f 294/2/3 288/2/3 293/2/3
f 295/2/3 290/2/3 289/2/3
f 295/3/3 289/3/3 294/3/3
f 296/2/3 290/2/3 295/2/3
f 297/2/3 294/2/3 293/2/3
f 297/2/3 295/2/3 294/2/3
f 298/2/3 295/2/3 297/2/3
f 301/1/3 300/1/3 299/1/3
f 302/1/3 300/1/3 301/1/3
f 305/1/3 304/1/3 303/1/3
f 306/1/3 304/1/3 305/1/3
f 309/1/3 308/1/3 307/1/3
f 310/1/3 308/1/3 309/1/3
f 311/1/4 312/1/4 313/1/4
f 313/1/4 312/1/4 314/1/4
f 315/1/4 316/1/4 317/1/4
f 317/1/4 316/1/4 318/1/4
f 319/1/4 320/1/4 321/1/4
f 321/1/4 320/1/4 322/1/4
f 323/1/4 324/1/4 325/1/4
f 325/1/4 324/1/4 326/1/4
f 327/1/4 328/1/4 331/1/4
f 331/1/4 328/1/4 332/1/4
f 333/1/4 334/1/4 335/1/4
f 335/1/4 334/1/4 336/1/4
f 329/1/4 330/1/4 337/1/4
f 337/1/4 330/1/4 338/1/4
f 341/1/4 342/1/4 345/1/4
f 345/1/4 342/1/4 346/1/4
f 343/1/4 344/1/4 348/1/4
f 347/2/4 348/2/4 351/2/4
f 348/1/4 344/1/4 352/1/4
f 351/2/4 348/2/4 352/2/4
f 339/1/4 340/1/4 353/1/4
f 353/1/4 340/1/4 354/1/4
f 349/1/4 350/1/4 355/1/4
f 355/1/4 350/1/4 356/1/4
f 352/1/4 344/1/4 357/1/4
f 357/1/4 344/1/4 358/1/4
f 359/1/4 360/1/4 363/1/4
f 363/1/4 360/1/4 364/1/4
f 361/1/4 362/1/4 365/1/4
f 365/1/4 362/1/4 366/1/4
f 366/1/4 362/1/4 367/1/4
f 365/2/4 366/2/4 368/2/4
f 363/2/4 364/2/4 369/2/4
f 368/2/4 366/2/4 370/2/4
f 363/2/4 369/2/4 371/2/4
f 359/1/4 363/1/4 372/1/4
f 363/2/4 371/2/4 372/2/4
f 372/2/4 371/2/4 373/2/4
f 370/2/4 366/2/4 374/2/4
f 374/2/4 366/2/4 375/2/4
f 372/1/4 373/1/4 377/1/4
f 359/1/4 372/1/4 377/1/4
f 377/1/4 373/1/4 378/1/4
f 375/1/4 376/1/4 379/1/4
f 374/1/4 375/1/4 379/1/4
f 379/1/4 376/1/4 380/1/4
f 381/1/4 382/1/4 383/1/4
f 383/1/4 382/1/4 384/1/4
f 383/2/4 384/2/4 385/2/4
f 385/2/4 384/2/4 386/2/4
f 383/2/4 385/2/4 387/2/4
f 385/3/4 386/3/4 388/3/4
f 387/2/4 385/2/4 388/2/4
f 386/2/4 384/2/4 389/2/4
f 388/3/4 386/3/4 389/3/4
f 389/2/4 384/2/4 390/2/4
f 390/2/4 384/2/4 391/2/4
f 383/2/4 387/2/4 392/2/4
f 387/3/4 388/3/4 393/3/4
f 392/2/4 387/2/4 393/2/4
f 388/2/4 389/2/4 394/2/4
f 393/3/4 388/3/4 394/3/4
f 389/2/4 390/2/4 394/2/4
f 394/2/4 390/2/4 395/2/4
f 390/3/4 391/3/4 396/3/4
f 395/2/4 390/2/4 396/2/4
f 396/3/4 391/3/4 397/3/4
f 392/3/4 393/3/4 398/3/4
f 394/2/4 395/2/4 399/2/4
f 398/3/4 393/3/4 399/3/4
f 393/2/4 394/2/4 399/2/4
f 399/2/4 395/2/4 400/2/4
f 395/3/4 396/3/4 401/3/4
f 400/2/4 395/2/4 401/2/4
f 396/2/4 397/2/4 402/2/4
f 401/3/4 396/3/4 402/3/4
f 399/2/4 400/2/4 403/2/4
f 398/2/4 399/2/4 403/2/4
f 400/3/4 401/3/4 404/3/4
f 403/2/4 400/2/4 404/2/4
f 401/2/4 402/2/4 405/2/4
f 404/3/4 401/3/4 405/3/4
f 398/2/4 403/2/4 406/2/4
f 403/3/4 404/3/4 407/3/4
f 406/2/4 403/2/4 407/2/4
f 404/2/4 405/2/4 408/2/4
f 407/3/4 404/3/4 408/3/4
f 398/2/4 406/2/4 409/2/4
f 406/3/4 407/3/4 409/3/4
f 407/2/4 408/2/4 410/2/4
f 409/3/4 407/3/4 410/3/4
f 398/2/4 409/2/4 411/2/4
f 409/2/4 410/2/4 411/2/4
f 405/2/4 402/2/4 412/2/4
f 411/2/4 410/2/4 412/2/4
f 402/2/4 397/2/4 412/2/4
f 410/2/4 408/2/4 412/2/4
f 408/2/4 405/2/4 412/2/4
f 411/1/4 412/1/4 413/1/4
f 413/1/4 412/1/4 414/1/4
f 417/4/5 416/4/5 415/4/5
f 418/4/5 416/4/5 417/4/5
f 419/4/5 416/4/5 418/4/5
f 420/4/5 416/4/5 419/4/5
f 421/1/5 418/1/5 417/1/5
f 421/4/5 419/4/5 418/4/5
f 422/1/5 420/1/5 419/1/5
f 422/4/5 419/4/5 421/4/5
f 423/1/5 421/1/5 417/1/5
f 423/1/5 422/1/5 421/1/5
f 424/1/5 420/1/5 422/1/5
f 424/1/5 422/1/5 423/1/5
f 429/1/5 426/1/5 425/1/5
f 430/1/5 426/1/5 429/1/5
f 431/1/5 428/1/5 427/1/5
f 432/1/5 428/1/5 431/1/5
f 435/1/5 434/1/5 433/1/5
f 436/1/5 434/1/5 435/1/5
f 443/1/5 438/1/5 437/1/5
f 444/2/5 439/2/5 438/2/5
f 444/1/5 438/1/5 443/1/5
f 445/3/5 440/3/5 439/3/5
f 445/2/5 439/2/5 444/2/5
f 446/2/5 441/2/5 440/2/5
f 446/3/5 440/3/5 445/3/5
f 447/1/5 442/1/5 441/1/5
f 447/2/5 441/2/5 446/2/5
f 448/1/5 442/1/5 447/1/5
f 453/2/5 450/2/5 449/2/5
f 454/2/5 450/2/5 453/2/5
f 455/2/5 452/2/5 451/2/5
f 456/2/5 452/2/5 455/2/5
f 461/1/5 458/1/5 457/1/5
f 462/1/5 458/1/5 461/1/5
f 463/1/5 460/1/5 459/1/5
f 464/1/5 460/1/5 463/1/5
f 471/2/5 466/2/5 465/2/5
f 472/2/5 466/2/5 471/2/5
f 473/2/5 468/2/5 467/2/5
f 474/2/5 468/2/5 473/2/5
f 477/1/5 470/1/5 469/1/5
f 478/1/5 470/1/5 477/1/5
f 479/1/5 476/1/5 475/1/5
f 480/1/5 476/1/5 479/1/5
f 487/1/5 482/1/5 481/1/5
f 488/2/5 483/2/5 482/2/5
f 488/1/5 482/1/5 487/1/5
f 489/2/5 483/2/5 488/2/5
f 490/2/5 485/2/5 484/2/5
f 491/1/5 486/1/5 485/1/5
f 491/2/5 485/2/5 490/2/5
f 492/1/5 486/1/5 491/1/5
f 493/2/5 490/2/5 489/2/5
f 494/2/5 490/2/5 493/2/5
f 499/2/5 496/2/5 495/2/5
f 500/2/5 496/2/5 499/2/5
f 503/1/5 498/1/5 497/1/5
f 504/1/5 498/1/5 503/1/5
f 505/1/5 502/1/5 501/1/5
f 506/1/5 502/1/5 505/1/5
f 509/1/5 508/1/5 507/1/5
f 510/1/5 508/1/5 509/1/5
f 513/1/5 512/1/5 511/1/5
f 514/1/5 512/1/5 513/1/5
f 515/1/6 516/1/6 519/1/6
f 519/1/6 516/1/6 520/1/6
f 517/1/6 518/1/6 521/1/6
f 521/1/6 518/1/6 522/1/6
f 523/1/6 524/1/6 525/1/6
f 525/1/6 524/1/6 526/1/6
f 527/1/6 528/1/6 529/1/6
f 529/1/6 528/1/6 530/1/6
f 531/1/6 532/1/6 533/1/6
f 533/1/6 532/1/6 534/1/6
f 535/1/6 536/1/6 539/1/6
f 539/1/6 536/1/6 540/1/6
f 537/1/6 538/1/6 541/1/6
f 541/1/6 538/1/6 542/1/6
f 543/1/6 544/1/6 548/1/6
f 548/1/6 544/1/6 549/1/6
f 545/1/6 546/1/6 550/1/6
f 550/1/6 546/1/6 551/1/6
f 547/1/6 548/1/6 553/1/6
f 553/1/6 548/1/6 554/1/6
f 551/1/6 552/1/6 555/1/6
f 555/1/6 552/1/6 556/1/6
f 557/1/6 558/1/6 561/1/6
f 561/1/6 558/1/6 562/1/6
f 559/1/6 560/1/6 563/1/6
f 563/1/6 560/1/6 564/1/6
f 565/1/6 566/1/6 571/1/6
f 566/2/6 567/2/6 572/2/6
f 571/1/6 566/1/6 572/1/6
f 567/3/6 568/3/6 573/3/6
f 572/2/6 567/2/6 573/2/6
f 568/2/6 569/2/6 574/2/6
f 573/3/6 568/3/6 574/3/6
f 569/1/6 570/1/6 575/1/6
f 574/2/6 569/2/6 575/2/6
f 575/1/6 570/1/6 576/1/6
f 577/2/6 578/2/6 579/2/6
f 579/2/6 578/2/6 580/2/6
f 581/1/6 582/1/6 585/1/6
f 585/1/6 582/1/6 586/1/6
f 583/1/6 584/1/6 587/1/6
f 587/1/6 584/1/6 588/1/6
f 589/1/6 590/1/6 591/1/6
f 591/1/6 590/1/6 592/1/6
f 593/1/6 594/1/6 597/1/6
f 597/1/6 594/1/6 598/1/6
f 595/1/6 596/1/6 599/1/6
f 599/1/6 596/1/6 600/1/6
f 601/1/6 602/1/6 603/1/6
f 603/1/6 602/1/6 604/1/6
f 604/1/6 602/1/6 605/1/6
f 605/1/6 602/1/6 606/1/6
f 606/1/6 602/1/6 607/1/6
f 607/1/6 602/1/6 608/1/6
f 604/1/6 605/1/6 610/1/6
f 605/4/6 606/4/6 611/4/6
f 610/1/6 605/1/6 611/1/6
f 606/1/6 607/1/6 612/1/6
f 611/4/6 606/4/6 612/4/6
f 612/1/6 607/1/6 613/1/6
f 610/1/6 611/1/6 615/1/6
f 613/1/6 614/1/6 615/1/6
f 612/1/6 613/1/6 615/1/6
f 611/1/6 612/1/6 615/1/6
f 609/1/6 610/1/6 615/1/6
f 615/1/6 614/1/6 616/1/6
