# MagicaVoxel @ Ephtracy

# group
o 

# material
mtllib plane_chair_01.mtl
usemtl palette

# normals
vn -1 0 0
vn 1 0 0
vn 0 0 1
vn 0 0 -1
vn 0 -1 0
vn 0 1 0

# texcoords
vt 0.939453 0.5
vt 0.970703 0.5
vt 0.974609 0.5
vt 0.978516 0.5
vt 0.982422 0.5
vt 0.986328 0.5

# verts
v -0.3 0.2 0.3
v -0.3 0.2 0.2
v -0.3 0.2 0.1
v -0.3 0.2 -0.1
v -0.3 0.2 -0.2
v -0.3 0.2 -0.3
v -0.3 0.3 0.3
v -0.3 0.3 0.2
v -0.3 0.3 0.1
v -0.3 0.3 -0.1
v -0.3 0.3 -0.2
v -0.3 0.3 -0.3
v -0.2 0 0.5
v -0.2 0 0.3
v -0.2 0 -0.3
v -0.2 0 -0.5
v -0.2 0.1 0.5
v -0.2 0.1 0.3
v -0.2 0.1 0.2
v -0.2 0.1 0.1
v -0.2 0.1 -0.1
v -0.2 0.1 -0.2
v -0.2 0.1 -0.3
v -0.2 0.1 -0.5
v -0.2 0.2 0.3
v -0.2 0.2 0.2
v -0.2 0.2 0.1
v -0.2 0.2 -0.1
v -0.2 0.2 -0.2
v -0.2 0.2 -0.3
v -0.2 0.3 0.3
v -0.2 0.3 0.2
v -0.2 0.3 0.1
v -0.2 0.3 -0.1
v -0.2 0.3 -0.2
v -0.2 0.3 -0.3
v -0.2 0.4 0.3
v -0.2 0.4 0.2
v -0.2 0.4 0.1
v -0.2 0.4 -0.1
v -0.2 0.4 -0.2
v -0.2 0.4 -0.3
v -0.2 0.5 0.5
v -0.2 0.5 0.3
v -0.2 0.5 -0.3
v -0.2 0.5 -0.5
v -0.1 0.4 0.3
v -0.1 0.4 0.2
v -0.1 0.4 -0.2
v -0.1 0.4 -0.3
v -0.1 0.5 0.5
v -0.1 0.5 0.3
v -0.1 0.5 0.2
v -0.1 0.5 -0.2
v -0.1 0.5 -0.3
v -0.1 0.5 -0.5
v -0.1 0.6 0.5
v -0.1 0.6 0.3
v -0.1 0.6 -0.3
v -0.1 0.6 -0.5
v 0 0 0.5
v 0 0 0.4
v 0 0 -0.4
v 0 0 -0.5
v 0 0.4 0.5
v 0 0.4 0.4
v 0 0.4 -0.4
v 0 0.4 -0.5
v 0.1 0.1 0.2
v 0.1 0.1 0.1
v 0.1 0.1 -0.1
v 0.1 0.1 -0.2
v 0.1 0.2 0.2
v 0.1 0.2 0.1
v 0.1 0.2 -0.1
v 0.1 0.2 -0.2
v 0.1 0.4 0.2
v 0.1 0.4 0.1
v 0.1 0.4 -0.1
v 0.1 0.4 -0.2
v 0.1 0.5 0.3
v 0.1 0.5 0.2
v 0.1 0.5 0.1
v 0.1 0.5 -0.1
v 0.1 0.5 -0.2
v 0.1 0.5 -0.3
v 0.1 0.6 0.3
v 0.1 0.6 -0.3
v 0.1 0.8 0.3
v 0.1 0.8 0.2
v 0.1 0.8 -0.2
v 0.1 0.8 -0.3
v 0.2 0.4 0.5
v 0.2 0.4 0.4
v 0.2 0.4 -0.4
v 0.2 0.4 -0.5
v 0.2 0.5 0.5
v 0.2 0.5 0.4
v 0.2 0.5 0.2
v 0.2 0.5 0.1
v 0.2 0.5 -0.1
v 0.2 0.5 -0.2
v 0.2 0.5 -0.4
v 0.2 0.5 -0.5
v 0.2 0.8 0.3
v 0.2 0.8 0.2
v 0.2 0.8 0.1
v 0.2 0.8 -0.1
v 0.2 0.8 -0.2
v 0.2 0.8 -0.3
v 0.2 1 0.3
v 0.2 1 0.2
v 0.2 1 -0.2
v 0.2 1 -0.3
v 0.2 1.1 0.2
v 0.2 1.1 -0.2
v 0.2 1.3 0.2
v 0.2 1.3 -0.2
v 0.3 0 0.5
v 0.3 0 0.4
v 0.3 0 -0.4
v 0.3 0 -0.5
v 0.3 0.1 0.5
v 0.3 0.1 0.4
v 0.3 0.1 -0.4
v 0.3 0.1 -0.5
v 0.3 0.4 0.5
v 0.3 0.4 0.4
v 0.3 0.4 -0.4
v 0.3 0.4 -0.5
v 0.3 0.8 0.2
v 0.3 0.8 0.1
v 0.3 0.8 -0.1
v 0.3 0.8 -0.2
v 0.3 1 0.2
v 0.3 1 0.1
v 0.3 1 -0.1
v 0.3 1 -0.2
v 0.3 1.1 0.2
v 0.3 1.1 0.1
v 0.3 1.1 -0.1
v 0.3 1.1 -0.2
v -0.1 0 0.5
v -0.1 0 0.4
v -0.1 0 -0.4
v -0.1 0 -0.5
v -0.1 0.1 0.5
v -0.1 0.1 0.4
v -0.1 0.1 0.2
v -0.1 0.1 0.1
v -0.1 0.1 -0.1
v -0.1 0.1 -0.2
v -0.1 0.1 -0.4
v -0.1 0.1 -0.5
v -0.1 0.2 0.2
v -0.1 0.2 0.1
v -0.1 0.2 -0.1
v -0.1 0.2 -0.2
v -0.1 0.4 0.5
v -0.1 0.4 0.4
v -0.1 0.4 -0.4
v -0.1 0.4 -0.5
v 0 0.4 0.5
v 0 0.4 0.4
v 0 0.4 -0.4
v 0 0.4 -0.5
v 0 0.5 0.5
v 0 0.5 0.4
v 0 0.5 -0.4
v 0 0.5 -0.5
v 0.2 0 0.5
v 0.2 0 0.4
v 0.2 0 -0.4
v 0.2 0 -0.5
v 0.2 0.1 0.3
v 0.2 0.1 0.2
v 0.2 0.1 0.1
v 0.2 0.1 -0.1
v 0.2 0.1 -0.2
v 0.2 0.1 -0.3
v 0.2 0.3 0.3
v 0.2 0.3 0.2
v 0.2 0.3 0.1
v 0.2 0.3 -0.1
v 0.2 0.3 -0.2
v 0.2 0.3 -0.3
v 0.2 0.4 0.5
v 0.2 0.4 0.4
v 0.2 0.4 -0.4
v 0.2 0.4 -0.5
v 0.3 0.3 0.3
v 0.3 0.3 0.2
v 0.3 0.3 0.1
v 0.3 0.3 -0.1
v 0.3 0.3 -0.2
v 0.3 0.3 -0.3
v 0.3 0.4 0.2
v 0.3 0.4 0.1
v 0.3 0.4 -0.1
v 0.3 0.4 -0.2
v 0.3 0.5 0.5
v 0.3 0.5 0.3
v 0.3 0.5 0.2
v 0.3 0.5 -0.2
v 0.3 0.5 -0.3
v 0.3 0.5 -0.5
v 0.3 0.6 0.5
v 0.3 0.6 0.3
v 0.3 0.6 0.2
v 0.3 0.6 -0.2
v 0.3 0.6 -0.3
v 0.3 0.6 -0.5
v 0.3 1 0.3
v 0.3 1 0.2
v 0.3 1 -0.2
v 0.3 1 -0.3
v 0.3 1.1 0.1
v 0.3 1.1 -0.1
v 0.3 1.2 0.2
v 0.3 1.2 0.1
v 0.3 1.2 -0.1
v 0.3 1.2 -0.2
v 0.3 1.3 0.2
v 0.3 1.3 -0.2
v 0.4 0 0.5
v 0.4 0 0.3
v 0.4 0 -0.3
v 0.4 0 -0.5
v 0.4 0.1 0.5
v 0.4 0.1 0.3
v 0.4 0.1 -0.3
v 0.4 0.1 -0.5
v 0.4 0.4 0.2
v 0.4 0.4 0.1
v 0.4 0.4 -0.1
v 0.4 0.4 -0.2
v 0.4 0.5 0.5
v 0.4 0.5 0.3
v 0.4 0.5 0.2
v 0.4 0.5 0.1
v 0.4 0.5 -0.1
v 0.4 0.5 -0.2
v 0.4 0.5 -0.3
v 0.4 0.5 -0.5
v 0.4 0.6 0.3
v 0.4 0.6 0.2
v 0.4 0.6 0.1
v 0.4 0.6 -0.1
v 0.4 0.6 -0.2
v 0.4 0.6 -0.3
v 0.4 1 0.2
v 0.4 1 0.1
v 0.4 1 -0.1
v 0.4 1 -0.2
v 0.4 1.2 0.2
v 0.4 1.2 0.1
v 0.4 1.2 -0.1
v 0.4 1.2 -0.2
v 0.5 0.5 0.2
v 0.5 0.5 -0.2
v 0.5 0.6 0.2
v 0.5 0.6 -0.2
v -0.2 0 0.5
v -0.2 0.1 0.5
v -0.2 0.5 0.5
v -0.1 0 0.5
v -0.1 0.1 0.5
v -0.1 0.4 0.5
v -0.1 0.5 0.5
v -0.1 0.6 0.5
v 0 0 0.5
v 0 0.4 0.5
v 0 0.5 0.5
v 0.2 0 0.5
v 0.2 0.4 0.5
v 0.2 0.5 0.5
v 0.3 0 0.5
v 0.3 0.1 0.5
v 0.3 0.4 0.5
v 0.3 0.5 0.5
v 0.3 0.6 0.5
v 0.4 0 0.5
v 0.4 0.1 0.5
v 0.4 0.5 0.5
v -0.1 0 0.4
v -0.1 0.1 0.4
v -0.1 0.4 0.4
v 0 0 0.4
v 0 0.4 0.4
v 0 0.5 0.4
v 0.2 0 0.4
v 0.2 0.4 0.4
v 0.2 0.5 0.4
v 0.3 0 0.4
v 0.3 0.1 0.4
v 0.3 0.4 0.4
v -0.3 0.2 0.3
v -0.3 0.3 0.3
v -0.2 0.2 0.3
v -0.2 0.3 0.3
v 0.1 0.6 0.3
v 0.1 0.8 0.3
v 0.2 0.8 0.3
v 0.2 1 0.3
v 0.3 0.5 0.3
v 0.3 0.6 0.3
v 0.3 1 0.3
v 0.4 0.5 0.3
v 0.4 0.6 0.3
v 0.2 1.1 0.2
v 0.2 1.3 0.2
v 0.3 0.4 0.2
v 0.3 0.5 0.2
v 0.3 0.6 0.2
v 0.3 1 0.2
v 0.3 1.1 0.2
v 0.3 1.2 0.2
v 0.3 1.3 0.2
v 0.4 0.4 0.2
v 0.4 0.5 0.2
v 0.4 0.6 0.2
v 0.4 1 0.2
v 0.4 1.2 0.2
v 0.5 0.5 0.2
v 0.5 0.6 0.2
v 0.3 1 -0.1
v 0.3 1.1 -0.1
v 0.3 1.2 -0.1
v 0.4 1 -0.1
v 0.4 1.2 -0.1
v -0.1 0.1 -0.2
v -0.1 0.2 -0.2
v -0.1 0.4 -0.2
v -0.1 0.5 -0.2
v 0.1 0.1 -0.2
v 0.1 0.2 -0.2
v 0.1 0.4 -0.2
v 0.1 0.5 -0.2
v 0.1 0.8 -0.2
v 0.2 0.5 -0.2
v 0.2 0.8 -0.2
v 0.2 1 -0.2
v 0.3 0.8 -0.2
v 0.3 1 -0.2
v -0.2 0 -0.3
v -0.2 0.1 -0.3
v -0.2 0.4 -0.3
v -0.2 0.5 -0.3
v -0.1 0.4 -0.3
v -0.1 0.5 -0.3
v -0.1 0.6 -0.3
v 0.1 0.5 -0.3
v 0.1 0.6 -0.3
v 0.2 0.1 -0.3
v 0.2 0.3 -0.3
v 0.3 0.1 -0.3
v 0.3 0.3 -0.3
v 0.3 0.5 -0.3
v 0.4 0 -0.3
v 0.4 0.1 -0.3
v 0.4 0.5 -0.3
v -0.2 0 0.3
v -0.2 0.1 0.3
v -0.2 0.4 0.3
v -0.2 0.5 0.3
v -0.1 0.4 0.3
v -0.1 0.5 0.3
v -0.1 0.6 0.3
v 0.1 0.5 0.3
v 0.1 0.6 0.3
v 0.2 0.1 0.3
v 0.2 0.3 0.3
v 0.3 0.1 0.3
v 0.3 0.3 0.3
v 0.3 0.5 0.3
v 0.4 0 0.3
v 0.4 0.1 0.3
v 0.4 0.5 0.3
v -0.1 0.1 0.2
v -0.1 0.2 0.2
v -0.1 0.4 0.2
v -0.1 0.5 0.2
v 0.1 0.1 0.2
v 0.1 0.2 0.2
v 0.1 0.4 0.2
v 0.1 0.5 0.2
v 0.1 0.8 0.2
v 0.2 0.5 0.2
v 0.2 0.8 0.2
v 0.2 1 0.2
v 0.3 0.8 0.2
v 0.3 1 0.2
v 0.3 1 0.1
v 0.3 1.1 0.1
v 0.3 1.2 0.1
v 0.4 1 0.1
v 0.4 1.2 0.1
v 0.2 1.1 -0.2
v 0.2 1.3 -0.2
v 0.3 0.4 -0.2
v 0.3 0.5 -0.2
v 0.3 0.6 -0.2
v 0.3 1 -0.2
v 0.3 1.1 -0.2
v 0.3 1.2 -0.2
v 0.3 1.3 -0.2
v 0.4 0.4 -0.2
v 0.4 0.5 -0.2
v 0.4 0.6 -0.2
v 0.4 1 -0.2
v 0.4 1.2 -0.2
v 0.5 0.5 -0.2
v 0.5 0.6 -0.2
v -0.3 0.2 -0.3
v -0.3 0.3 -0.3
v -0.2 0.2 -0.3
v -0.2 0.3 -0.3
v 0.1 0.6 -0.3
v 0.1 0.8 -0.3
v 0.2 0.8 -0.3
v 0.2 1 -0.3
v 0.3 0.5 -0.3
v 0.3 0.6 -0.3
v 0.3 1 -0.3
v 0.4 0.5 -0.3
v 0.4 0.6 -0.3
v -0.1 0 -0.4
v -0.1 0.1 -0.4
v -0.1 0.4 -0.4
v 0 0 -0.4
v 0 0.4 -0.4
v 0 0.5 -0.4
v 0.2 0 -0.4
v 0.2 0.4 -0.4
v 0.2 0.5 -0.4
v 0.3 0 -0.4
v 0.3 0.1 -0.4
v 0.3 0.4 -0.4
v -0.2 0 -0.5
v -0.2 0.1 -0.5
v -0.2 0.5 -0.5
v -0.1 0 -0.5
v -0.1 0.1 -0.5
v -0.1 0.4 -0.5
v -0.1 0.5 -0.5
v -0.1 0.6 -0.5
v 0 0 -0.5
v 0 0.4 -0.5
v 0 0.5 -0.5
v 0.2 0 -0.5
v 0.2 0.4 -0.5
v 0.2 0.5 -0.5
v 0.3 0 -0.5
v 0.3 0.1 -0.5
v 0.3 0.4 -0.5
v 0.3 0.5 -0.5
v 0.3 0.6 -0.5
v 0.4 0 -0.5
v 0.4 0.1 -0.5
v 0.4 0.5 -0.5
v -0.2 0 0.5
v -0.1 0 0.5
v 0 0 0.5
v 0.2 0 0.5
v 0.3 0 0.5
v 0.4 0 0.5
v -0.1 0 0.4
v 0 0 0.4
v 0.2 0 0.4
v 0.3 0 0.4
v -0.2 0 0.3
v 0.4 0 0.3
v -0.2 0 -0.3
v 0.4 0 -0.3
v -0.1 0 -0.4
v 0 0 -0.4
v 0.2 0 -0.4
v 0.3 0 -0.4
v -0.2 0 -0.5
v -0.1 0 -0.5
v 0 0 -0.5
v 0.2 0 -0.5
v 0.3 0 -0.5
v 0.4 0 -0.5
v -0.2 0.1 0.3
v 0.2 0.1 0.3
v -0.2 0.1 0.2
v -0.1 0.1 0.2
v 0.1 0.1 0.2
v 0.2 0.1 0.2
v -0.2 0.1 0.1
v -0.1 0.1 0.1
v 0.1 0.1 0.1
v 0.2 0.1 0.1
v -0.2 0.1 -0.1
v -0.1 0.1 -0.1
v 0.1 0.1 -0.1
v 0.2 0.1 -0.1
v -0.2 0.1 -0.2
v -0.1 0.1 -0.2
v 0.1 0.1 -0.2
v 0.2 0.1 -0.2
v -0.2 0.1 -0.3
v 0.2 0.1 -0.3
v -0.3 0.2 0.3
v -0.2 0.2 0.3
v -0.3 0.2 0.2
v -0.2 0.2 0.2
v -0.1 0.2 0.2
v 0.1 0.2 0.2
v -0.3 0.2 0.1
v -0.2 0.2 0.1
v -0.1 0.2 0.1
v 0.1 0.2 0.1
v -0.3 0.2 -0.1
v -0.2 0.2 -0.1
v -0.1 0.2 -0.1
v 0.1 0.2 -0.1
v -0.3 0.2 -0.2
v -0.2 0.2 -0.2
v -0.1 0.2 -0.2
v 0.1 0.2 -0.2
v -0.3 0.2 -0.3
v -0.2 0.2 -0.3
v 0.2 0.3 0.3
v 0.3 0.3 0.3
v 0.2 0.3 0.2
v 0.3 0.3 0.2
v 0.2 0.3 0.1
v 0.3 0.3 0.1
v 0.2 0.3 -0.1
v 0.3 0.3 -0.1
v 0.2 0.3 -0.2
v 0.3 0.3 -0.2
v 0.2 0.3 -0.3
v 0.3 0.3 -0.3
v -0.1 0.4 0.5
v 0 0.4 0.5
v 0.2 0.4 0.5
v 0.3 0.4 0.5
v -0.1 0.4 0.4
v 0 0.4 0.4
v 0.2 0.4 0.4
v 0.3 0.4 0.4
v 0.3 0.4 0.2
v 0.4 0.4 0.2
v 0.3 0.4 0.1
v 0.4 0.4 0.1
v 0.3 0.4 -0.1
v 0.4 0.4 -0.1
v 0.3 0.4 -0.2
v 0.4 0.4 -0.2
v -0.1 0.4 -0.4
v 0 0.4 -0.4
v 0.2 0.4 -0.4
v 0.3 0.4 -0.4
v -0.1 0.4 -0.5
v 0 0.4 -0.5
v 0.2 0.4 -0.5
v 0.3 0.4 -0.5
v 0 0.5 0.5
v 0.2 0.5 0.5
v 0 0.5 0.4
v 0.2 0.5 0.4
v 0.3 0.5 0.3
v 0.4 0.5 0.3
v 0.3 0.5 0.2
v 0.4 0.5 0.2
v 0.5 0.5 0.2
v 0.4 0.5 0.1
v 0.4 0.5 -0.1
v 0.3 0.5 -0.2
v 0.4 0.5 -0.2
v 0.5 0.5 -0.2
v 0.3 0.5 -0.3
v 0.4 0.5 -0.3
v 0 0.5 -0.4
v 0.2 0.5 -0.4
v 0 0.5 -0.5
v 0.2 0.5 -0.5
v 0.2 1.1 0.2
v 0.3 1.1 0.2
v 0.3 1.1 0.1
v 0.3 1.1 -0.1
v 0.2 1.1 -0.2
v 0.3 1.1 -0.2
v -0.3 0.3 0.3
v -0.2 0.3 0.3
v -0.3 0.3 0.2
v -0.2 0.3 0.2
v -0.3 0.3 0.1
v -0.2 0.3 0.1
v -0.3 0.3 -0.1
v -0.2 0.3 -0.1
v -0.3 0.3 -0.2
v -0.2 0.3 -0.2
v -0.3 0.3 -0.3
v -0.2 0.3 -0.3
v 0 0.4 0.5
v 0.2 0.4 0.5
v 0 0.4 0.4
v 0.2 0.4 0.4
v -0.2 0.4 0.3
v -0.1 0.4 0.3
v -0.2 0.4 0.2
v -0.1 0.4 0.2
v 0.1 0.4 0.2
v -0.2 0.4 0.1
v 0.1 0.4 0.1
v -0.2 0.4 -0.1
v 0.1 0.4 -0.1
v -0.2 0.4 -0.2
v -0.1 0.4 -0.2
v 0.1 0.4 -0.2
v -0.2 0.4 -0.3
v -0.1 0.4 -0.3
v 0 0.4 -0.4
v 0.2 0.4 -0.4
v 0 0.4 -0.5
v 0.2 0.4 -0.5
v -0.2 0.5 0.5
v -0.1 0.5 0.5
v 0.3 0.5 0.5
v 0.4 0.5 0.5
v -0.2 0.5 0.3
v -0.1 0.5 0.3
v 0.1 0.5 0.3
v 0.3 0.5 0.3
v 0.4 0.5 0.3
v -0.1 0.5 0.2
v 0.1 0.5 0.2
v 0.2 0.5 0.2
v 0.1 0.5 0.1
v 0.2 0.5 0.1
v 0.1 0.5 -0.1
v 0.2 0.5 -0.1
v -0.1 0.5 -0.2
v 0.1 0.5 -0.2
v 0.2 0.5 -0.2
v -0.2 0.5 -0.3
v -0.1 0.5 -0.3
v 0.1 0.5 -0.3
v 0.3 0.5 -0.3
v 0.4 0.5 -0.3
v -0.2 0.5 -0.5
v -0.1 0.5 -0.5
v 0.3 0.5 -0.5
v 0.4 0.5 -0.5
v -0.1 0.6 0.5
v 0.3 0.6 0.5
v -0.1 0.6 0.3
v 0.1 0.6 0.3
v 0.3 0.6 0.3
v 0.4 0.6 0.3
v 0.3 0.6 0.2
v 0.4 0.6 0.2
v 0.5 0.6 0.2
v 0.4 0.6 0.1
v 0.4 0.6 -0.1
v 0.3 0.6 -0.2
v 0.4 0.6 -0.2
v 0.5 0.6 -0.2
v -0.1 0.6 -0.3
v 0.1 0.6 -0.3
v 0.3 0.6 -0.3
v 0.4 0.6 -0.3
v -0.1 0.6 -0.5
v 0.3 0.6 -0.5
v 0.1 0.8 0.3
v 0.2 0.8 0.3
v 0.1 0.8 0.2
v 0.2 0.8 0.2
v 0.3 0.8 0.2
v 0.2 0.8 0.1
v 0.3 0.8 0.1
v 0.2 0.8 -0.1
v 0.3 0.8 -0.1
v 0.1 0.8 -0.2
v 0.2 0.8 -0.2
v 0.3 0.8 -0.2
v 0.1 0.8 -0.3
v 0.2 0.8 -0.3
v 0.2 1 0.3
v 0.3 1 0.3
v 0.2 1 0.2
v 0.3 1 0.2
v 0.3 1 0.1
v 0.4 1 0.1
v 0.3 1 -0.1
v 0.4 1 -0.1
v 0.2 1 -0.2
v 0.3 1 -0.2
v 0.2 1 -0.3
v 0.3 1 -0.3
v 0.3 1.2 0.2
v 0.4 1.2 0.2
v 0.3 1.2 0.1
v 0.4 1.2 0.1
v 0.3 1.2 -0.1
v 0.4 1.2 -0.1
v 0.3 1.2 -0.2
v 0.4 1.2 -0.2
v 0.2 1.3 0.2
v 0.3 1.3 0.2
v 0.2 1.3 -0.2
v 0.3 1.3 -0.2

# faces
f 7/4/1 2/4/1 1/4/1
f 8/6/1 3/6/1 2/6/1
f 8/4/1 2/4/1 7/4/1
f 9/4/1 4/4/1 3/4/1
f 9/6/1 3/6/1 8/6/1
f 10/6/1 5/6/1 4/6/1
f 10/4/1 4/4/1 9/4/1
f 11/4/1 6/4/1 5/4/1
f 11/6/1 5/6/1 10/6/1
f 12/4/1 6/4/1 11/4/1
f 17/1/1 14/1/1 13/1/1
f 18/1/1 14/1/1 17/1/1
f 23/1/1 16/1/1 15/1/1
f 24/1/1 16/1/1 23/1/1
f 25/2/1 18/2/1 17/2/1
f 25/4/1 19/4/1 18/4/1
f 26/6/1 20/6/1 19/6/1
f 26/4/1 19/4/1 25/4/1
f 27/4/1 21/4/1 20/4/1
f 27/6/1 20/6/1 26/6/1
f 28/6/1 22/6/1 21/6/1
f 28/4/1 21/4/1 27/4/1
f 29/4/1 23/4/1 22/4/1
f 29/6/1 22/6/1 28/6/1
f 30/2/1 24/2/1 23/2/1
f 30/4/1 23/4/1 29/4/1
f 31/2/1 25/2/1 17/2/1
f 36/2/1 24/2/1 30/2/1
f 37/2/1 31/2/1 17/2/1
f 37/4/1 32/4/1 31/4/1
f 38/6/1 33/6/1 32/6/1
f 38/4/1 32/4/1 37/4/1
f 39/4/1 34/4/1 33/4/1
f 39/6/1 33/6/1 38/6/1
f 40/6/1 35/6/1 34/6/1
f 40/4/1 34/4/1 39/4/1
f 41/4/1 36/4/1 35/4/1
f 41/6/1 35/6/1 40/6/1
f 42/2/1 24/2/1 36/2/1
f 42/4/1 36/4/1 41/4/1
f 43/2/1 37/2/1 17/2/1
f 44/2/1 37/2/1 43/2/1
f 45/2/1 24/2/1 42/2/1
f 46/2/1 24/2/1 45/2/1
f 52/4/1 48/4/1 47/4/1
f 53/4/1 48/4/1 52/4/1
f 54/4/1 50/4/1 49/4/1
f 55/4/1 50/4/1 54/4/1
f 57/2/1 52/2/1 51/2/1
f 58/2/1 52/2/1 57/2/1
f 59/2/1 56/2/1 55/2/1
f 60/2/1 56/2/1 59/2/1
f 65/1/1 62/1/1 61/1/1
f 66/1/1 62/1/1 65/1/1
f 67/1/1 64/1/1 63/1/1
f 68/1/1 64/1/1 67/1/1
f 73/6/1 70/6/1 69/6/1
f 74/4/1 71/4/1 70/4/1
f 74/6/1 70/6/1 73/6/1
f 75/6/1 72/6/1 71/6/1
f 75/4/1 71/4/1 74/4/1
f 76/6/1 72/6/1 75/6/1
f 82/6/1 78/6/1 77/6/1
f 83/4/1 79/4/1 78/4/1
f 83/6/1 78/6/1 82/6/1
f 84/6/1 80/6/1 79/6/1
f 84/4/1 79/4/1 83/4/1
f 85/6/1 80/6/1 84/6/1
f 87/4/1 82/4/1 81/4/1
f 88/4/1 86/4/1 85/4/1
f 89/4/1 82/4/1 87/4/1
f 90/4/1 82/4/1 89/4/1
f 91/4/1 88/4/1 85/4/1
f 92/4/1 88/4/1 91/4/1
f 97/2/1 94/2/1 93/2/1
f 98/2/1 94/2/1 97/2/1
f 103/2/1 96/2/1 95/2/1
f 104/2/1 96/2/1 103/2/1
f 106/6/1 100/6/1 99/6/1
f 107/4/1 101/4/1 100/4/1
f 107/6/1 100/6/1 106/6/1
f 108/6/1 102/6/1 101/6/1
f 108/4/1 101/4/1 107/4/1
f 109/6/1 102/6/1 108/6/1
f 111/4/1 106/4/1 105/4/1
f 112/4/1 106/4/1 111/4/1
f 113/4/1 110/4/1 109/4/1
f 114/4/1 110/4/1 113/4/1
f 117/3/1 116/3/1 115/3/1
f 118/3/1 116/3/1 117/3/1
f 123/1/1 120/1/1 119/1/1
f 124/1/1 120/1/1 123/1/1
f 125/1/1 122/1/1 121/1/1
f 126/1/1 122/1/1 125/1/1
f 127/2/1 124/2/1 123/2/1
f 128/2/1 124/2/1 127/2/1
f 129/2/1 126/2/1 125/2/1
f 130/2/1 126/2/1 129/2/1
f 135/6/1 132/6/1 131/6/1
f 136/4/1 133/4/1 132/4/1
f 136/6/1 132/6/1 135/6/1
f 137/6/1 134/6/1 133/6/1
f 137/4/1 133/4/1 136/4/1
f 138/6/1 134/6/1 137/6/1
f 139/5/1 136/5/1 135/5/1
f 140/5/1 136/5/1 139/5/1
f 141/5/1 138/5/1 137/5/1
f 142/5/1 138/5/1 141/5/1
f 143/1/2 144/1/2 147/1/2
f 147/1/2 144/1/2 148/1/2
f 145/1/2 146/1/2 153/1/2
f 153/1/2 146/1/2 154/1/2
f 149/6/2 150/6/2 155/6/2
f 150/4/2 151/4/2 156/4/2
f 155/6/2 150/6/2 156/6/2
f 151/6/2 152/6/2 157/6/2
f 156/4/2 151/4/2 157/4/2
f 157/6/2 152/6/2 158/6/2
f 147/2/2 148/2/2 159/2/2
f 159/2/2 148/2/2 160/2/2
f 153/2/2 154/2/2 161/2/2
f 161/2/2 154/2/2 162/2/2
f 163/2/2 164/2/2 167/2/2
f 167/2/2 164/2/2 168/2/2
f 165/2/2 166/2/2 169/2/2
f 169/2/2 166/2/2 170/2/2
f 175/4/2 176/4/2 181/4/2
f 176/6/2 177/6/2 182/6/2
f 181/4/2 176/4/2 182/4/2
f 177/4/2 178/4/2 183/4/2
f 182/6/2 177/6/2 183/6/2
f 178/6/2 179/6/2 184/6/2
f 183/4/2 178/4/2 184/4/2
f 179/4/2 180/4/2 185/4/2
f 184/6/2 179/6/2 185/6/2
f 185/4/2 180/4/2 186/4/2
f 171/1/2 172/1/2 187/1/2
f 187/1/2 172/1/2 188/1/2
f 173/1/2 174/1/2 189/1/2
f 189/1/2 174/1/2 190/1/2
f 191/4/2 192/4/2 197/4/2
f 192/6/2 193/6/2 197/6/2
f 193/4/2 194/4/2 198/4/2
f 197/6/2 193/6/2 198/6/2
f 194/6/2 195/6/2 199/6/2
f 198/4/2 194/4/2 199/4/2
f 195/4/2 196/4/2 200/4/2
f 199/6/2 195/6/2 200/6/2
f 191/4/2 197/4/2 202/4/2
f 202/4/2 197/4/2 203/4/2
f 200/4/2 196/4/2 204/4/2
f 204/4/2 196/4/2 205/4/2
f 201/2/2 202/2/2 207/2/2
f 207/2/2 202/2/2 208/2/2
f 205/2/2 206/2/2 211/2/2
f 211/2/2 206/2/2 212/2/2
f 208/4/2 209/4/2 213/4/2
f 213/4/2 209/4/2 214/4/2
f 210/4/2 211/4/2 215/4/2
f 215/4/2 211/4/2 216/4/2
f 217/3/2 218/3/2 220/3/2
f 220/3/2 218/3/2 221/3/2
f 219/3/2 220/3/2 223/3/2
f 221/3/2 222/3/2 223/3/2
f 220/3/2 221/3/2 223/3/2
f 223/3/2 222/3/2 224/3/2
f 225/1/2 226/1/2 229/1/2
f 229/1/2 226/1/2 230/1/2
f 227/1/2 228/1/2 231/1/2
f 231/1/2 228/1/2 232/1/2
f 229/2/2 230/2/2 237/2/2
f 237/2/2 230/2/2 238/2/2
f 233/6/2 234/6/2 239/6/2
f 234/3/2 235/3/2 240/3/2
f 239/6/2 234/6/2 240/6/2
f 235/6/2 236/6/2 241/6/2
f 240/3/2 235/3/2 241/3/2
f 241/6/2 236/6/2 242/6/2
f 231/2/2 232/2/2 243/2/2
f 243/2/2 232/2/2 244/2/2
f 238/4/2 239/4/2 245/4/2
f 245/4/2 239/4/2 246/4/2
f 242/4/2 243/4/2 249/4/2
f 249/4/2 243/4/2 250/4/2
f 246/6/2 247/6/2 251/6/2
f 247/4/2 248/4/2 252/4/2
f 251/6/2 247/6/2 252/6/2
f 248/6/2 249/6/2 253/6/2
f 252/4/2 248/4/2 253/4/2
f 253/6/2 249/6/2 254/6/2
f 251/5/2 252/5/2 255/5/2
f 255/5/2 252/5/2 256/5/2
f 253/5/2 254/5/2 257/5/2
f 257/5/2 254/5/2 258/5/2
f 259/3/2 260/3/2 261/3/2
f 261/3/2 260/3/2 262/3/2
f 266/1/3 264/1/3 263/1/3
f 267/2/3 265/2/3 264/2/3
f 267/1/3 264/1/3 266/1/3
f 268/2/3 265/2/3 267/2/3
f 269/2/3 265/2/3 268/2/3
f 272/2/3 270/2/3 269/2/3
f 272/2/3 269/2/3 268/2/3
f 273/2/3 270/2/3 272/2/3
f 274/1/3 272/1/3 271/1/3
f 275/1/3 272/1/3 274/1/3
f 276/2/3 270/2/3 273/2/3
f 279/2/3 276/2/3 275/2/3
f 280/2/3 270/2/3 276/2/3
f 280/2/3 276/2/3 279/2/3
f 281/2/3 270/2/3 280/2/3
f 282/1/3 278/1/3 277/1/3
f 283/2/3 279/2/3 278/2/3
f 283/1/3 278/1/3 282/1/3
f 283/2/3 280/2/3 279/2/3
f 284/2/3 280/2/3 283/2/3
f 288/1/3 286/1/3 285/1/3
f 288/1/3 287/1/3 286/1/3
f 289/1/3 287/1/3 288/1/3
f 292/1/3 290/1/3 289/1/3
f 293/1/3 290/1/3 292/1/3
f 294/1/3 292/1/3 291/1/3
f 295/1/3 292/1/3 294/1/3
f 296/1/3 292/1/3 295/1/3
f 299/4/3 298/4/3 297/4/3
f 300/4/3 298/4/3 299/4/3
f 303/4/3 302/4/3 301/4/3
f 306/4/3 303/4/3 301/4/3
f 306/4/3 304/4/3 303/4/3
f 307/4/3 304/4/3 306/4/3
f 308/4/3 306/4/3 305/4/3
f 309/4/3 306/4/3 308/4/3
f 316/3/3 311/3/3 310/3/3
f 317/3/3 311/3/3 316/3/3
f 318/3/3 311/3/3 317/3/3
f 319/6/3 313/6/3 312/6/3
f 320/6/3 313/6/3 319/6/3
f 321/6/3 315/6/3 314/6/3
f 322/5/3 316/5/3 315/5/3
f 322/5/3 317/5/3 316/5/3
f 322/6/3 315/6/3 321/6/3
f 323/5/3 317/5/3 322/5/3
f 324/3/3 321/3/3 320/3/3
f 325/3/3 321/3/3 324/3/3
f 329/5/3 327/5/3 326/5/3
f 329/5/3 328/5/3 327/5/3
f 330/5/3 328/5/3 329/5/3
f 335/4/3 332/4/3 331/4/3
f 336/4/3 332/4/3 335/4/3
f 337/4/3 334/4/3 333/4/3
f 338/4/3 334/4/3 337/4/3
f 340/4/3 339/4/3 338/4/3
f 341/4/3 339/4/3 340/4/3
f 343/4/3 342/4/3 341/4/3
f 344/4/3 342/4/3 343/4/3
f 349/2/3 348/2/3 347/2/3
f 350/2/3 348/2/3 349/2/3
f 352/2/3 351/2/3 350/2/3
f 353/2/3 351/2/3 352/2/3
f 354/1/3 346/1/3 345/1/3
f 356/1/3 354/1/3 345/1/3
f 356/1/3 355/1/3 354/1/3
f 357/1/3 355/1/3 356/1/3
f 359/1/3 356/1/3 345/1/3
f 360/2/3 358/2/3 357/2/3
f 360/1/3 356/1/3 359/1/3
f 360/2/3 357/2/3 356/2/3
f 361/2/3 358/2/3 360/2/3
f 364/2/4 365/2/4 366/2/4
f 366/2/4 365/2/4 367/2/4
f 367/2/4 368/2/4 369/2/4
f 369/2/4 368/2/4 370/2/4
f 362/1/4 363/1/4 371/1/4
f 362/1/4 371/1/4 373/1/4
f 371/1/4 372/1/4 373/1/4
f 373/1/4 372/1/4 374/1/4
f 362/1/4 373/1/4 376/1/4
f 374/2/4 375/2/4 377/2/4
f 376/1/4 373/1/4 377/1/4
f 373/2/4 374/2/4 377/2/4
f 377/2/4 375/2/4 378/2/4
f 379/4/4 380/4/4 383/4/4
f 383/4/4 380/4/4 384/4/4
f 381/4/4 382/4/4 385/4/4
f 385/4/4 382/4/4 386/4/4
f 386/4/4 387/4/4 388/4/4
f 388/4/4 387/4/4 389/4/4
f 389/4/4 390/4/4 391/4/4
f 391/4/4 390/4/4 392/4/4
f 393/5/4 394/5/4 396/5/4
f 394/5/4 395/5/4 396/5/4
f 396/5/4 395/5/4 397/5/4
f 398/3/4 399/3/4 404/3/4
f 404/3/4 399/3/4 405/3/4
f 405/3/4 399/3/4 406/3/4
f 400/6/4 401/6/4 407/6/4
f 407/6/4 401/6/4 408/6/4
f 402/6/4 403/6/4 409/6/4
f 403/5/4 404/5/4 410/5/4
f 404/5/4 405/5/4 410/5/4
f 409/6/4 403/6/4 410/6/4
f 410/5/4 405/5/4 411/5/4
f 408/3/4 409/3/4 412/3/4
f 412/3/4 409/3/4 413/3/4
f 414/4/4 415/4/4 416/4/4
f 416/4/4 415/4/4 417/4/4
f 418/4/4 419/4/4 420/4/4
f 418/4/4 420/4/4 423/4/4
f 420/4/4 421/4/4 423/4/4
f 423/4/4 421/4/4 424/4/4
f 422/4/4 423/4/4 425/4/4
f 425/4/4 423/4/4 426/4/4
f 427/1/4 428/1/4 430/1/4
f 428/1/4 429/1/4 430/1/4
f 430/1/4 429/1/4 431/1/4
f 431/1/4 432/1/4 434/1/4
f 434/1/4 432/1/4 435/1/4
f 433/1/4 434/1/4 436/1/4
f 436/1/4 434/1/4 437/1/4
f 437/1/4 434/1/4 438/1/4
f 439/1/4 440/1/4 442/1/4
f 440/2/4 441/2/4 443/2/4
f 442/1/4 440/1/4 443/1/4
f 443/2/4 441/2/4 444/2/4
f 444/2/4 441/2/4 445/2/4
f 445/2/4 446/2/4 448/2/4
f 444/2/4 445/2/4 448/2/4
f 448/2/4 446/2/4 449/2/4
f 447/1/4 448/1/4 450/1/4
f 450/1/4 448/1/4 451/1/4
f 449/2/4 446/2/4 452/2/4
f 451/2/4 452/2/4 455/2/4
f 452/2/4 446/2/4 456/2/4
f 455/2/4 452/2/4 456/2/4
f 456/2/4 446/2/4 457/2/4
f 453/1/4 454/1/4 458/1/4
f 454/2/4 455/2/4 459/2/4
f 458/1/4 454/1/4 459/1/4
f 455/2/4 456/2/4 459/2/4
f 459/2/4 456/2/4 460/2/4
f 467/1/5 462/1/5 461/1/5
f 468/1/5 464/1/5 463/1/5
f 469/1/5 464/1/5 468/1/5
f 470/1/5 466/1/5 465/1/5
f 471/1/5 469/1/5 468/1/5
f 471/1/5 470/1/5 469/1/5
f 471/1/5 467/1/5 461/1/5
f 471/1/5 468/1/5 467/1/5
f 472/1/5 466/1/5 470/1/5
f 472/1/5 470/1/5 471/1/5
f 475/1/5 474/1/5 473/1/5
f 476/1/5 474/1/5 475/1/5
f 477/1/5 474/1/5 476/1/5
f 478/1/5 474/1/5 477/1/5
f 479/1/5 475/1/5 473/1/5
f 480/1/5 475/1/5 479/1/5
f 481/1/5 477/1/5 476/1/5
f 482/1/5 477/1/5 481/1/5
f 483/1/5 474/1/5 478/1/5
f 484/1/5 474/1/5 483/1/5
f 487/4/5 486/4/5 485/4/5
f 488/4/5 486/4/5 487/4/5
f 489/4/5 486/4/5 488/4/5
f 490/4/5 486/4/5 489/4/5
f 491/6/5 488/6/5 487/6/5
f 492/6/5 488/6/5 491/6/5
f 493/6/5 490/6/5 489/6/5
f 494/6/5 490/6/5 493/6/5
f 495/4/5 492/4/5 491/4/5
f 496/4/5 492/4/5 495/4/5
f 497/4/5 494/4/5 493/4/5
f 498/4/5 494/4/5 497/4/5
f 499/6/5 496/6/5 495/6/5
f 500/6/5 496/6/5 499/6/5
f 501/6/5 498/6/5 497/6/5
f 502/6/5 498/6/5 501/6/5
f 503/4/5 500/4/5 499/4/5
f 503/4/5 501/4/5 500/4/5
f 503/4/5 502/4/5 501/4/5
f 504/4/5 502/4/5 503/4/5
f 507/4/5 506/4/5 505/4/5
f 508/4/5 506/4/5 507/4/5
f 511/6/5 508/6/5 507/6/5
f 512/6/5 508/6/5 511/6/5
f 513/6/5 510/6/5 509/6/5
f 514/6/5 510/6/5 513/6/5
f 515/4/5 512/4/5 511/4/5
f 516/4/5 512/4/5 515/4/5
f 517/4/5 514/4/5 513/4/5
f 518/4/5 514/4/5 517/4/5
f 519/6/5 516/6/5 515/6/5
f 520/6/5 516/6/5 519/6/5
f 521/6/5 518/6/5 517/6/5
f 522/6/5 518/6/5 521/6/5
f 523/4/5 520/4/5 519/4/5
f 524/4/5 520/4/5 523/4/5
f 527/4/5 526/4/5 525/4/5
f 528/4/5 526/4/5 527/4/5
f 529/6/5 528/6/5 527/6/5
f 530/6/5 528/6/5 529/6/5
f 531/4/5 530/4/5 529/4/5
f 532/4/5 530/4/5 531/4/5
f 533/6/5 532/6/5 531/6/5
f 534/6/5 532/6/5 533/6/5
f 535/4/5 534/4/5 533/4/5
f 536/4/5 534/4/5 535/4/5
f 541/2/5 538/2/5 537/2/5
f 542/2/5 538/2/5 541/2/5
f 543/2/5 540/2/5 539/2/5
f 544/2/5 540/2/5 543/2/5
f 547/6/5 546/6/5 545/6/5
f 548/6/5 546/6/5 547/6/5
f 549/3/5 548/3/5 547/3/5
f 550/3/5 548/3/5 549/3/5
f 551/6/5 550/6/5 549/6/5
f 552/6/5 550/6/5 551/6/5
f 557/2/5 554/2/5 553/2/5
f 558/2/5 554/2/5 557/2/5
f 559/2/5 556/2/5 555/2/5
f 560/2/5 556/2/5 559/2/5
f 563/2/5 562/2/5 561/2/5
f 564/2/5 562/2/5 563/2/5
f 567/4/5 566/4/5 565/4/5
f 568/4/5 566/4/5 567/4/5
f 570/3/5 569/3/5 568/3/5
f 571/3/5 569/3/5 570/3/5
f 573/3/5 569/3/5 571/3/5
f 574/3/5 569/3/5 573/3/5
f 575/4/5 573/4/5 572/4/5
f 576/4/5 573/4/5 575/4/5
f 579/2/5 578/2/5 577/2/5
f 580/2/5 578/2/5 579/2/5
f 583/3/5 582/3/5 581/3/5
f 584/3/5 583/3/5 581/3/5
f 585/3/5 584/3/5 581/3/5
f 586/3/5 584/3/5 585/3/5
f 587/4/6 588/4/6 589/4/6
f 589/4/6 588/4/6 590/4/6
f 589/6/6 590/6/6 591/6/6
f 591/6/6 590/6/6 592/6/6
f 591/4/6 592/4/6 593/4/6
f 593/4/6 592/4/6 594/4/6
f 593/6/6 594/6/6 595/6/6
f 595/6/6 594/6/6 596/6/6
f 595/4/6 596/4/6 597/4/6
f 597/4/6 596/4/6 598/4/6
f 599/1/6 600/1/6 601/1/6
f 601/1/6 600/1/6 602/1/6
f 603/4/6 604/4/6 605/4/6
f 605/4/6 604/4/6 606/4/6
f 605/6/6 606/6/6 608/6/6
f 606/6/6 607/6/6 608/6/6
f 608/6/6 607/6/6 609/6/6
f 608/4/6 609/4/6 610/4/6
f 610/4/6 609/4/6 611/4/6
f 610/6/6 611/6/6 612/6/6
f 612/6/6 611/6/6 613/6/6
f 613/6/6 611/6/6 614/6/6
f 612/4/6 613/4/6 615/4/6
f 615/4/6 613/4/6 616/4/6
f 617/1/6 618/1/6 619/1/6
f 619/1/6 618/1/6 620/1/6
f 621/2/6 622/2/6 625/2/6
f 625/2/6 622/2/6 626/2/6
f 623/2/6 624/2/6 628/2/6
f 628/2/6 624/2/6 629/2/6
f 626/4/6 627/4/6 630/4/6
f 630/4/6 627/4/6 631/4/6
f 631/6/6 632/6/6 633/6/6
f 633/6/6 632/6/6 634/6/6
f 633/4/6 634/4/6 635/4/6
f 635/4/6 634/4/6 636/4/6
f 635/6/6 636/6/6 638/6/6
f 638/6/6 636/6/6 639/6/6
f 637/4/6 638/4/6 641/4/6
f 641/4/6 638/4/6 642/4/6
f 640/2/6 641/2/6 645/2/6
f 645/2/6 641/2/6 646/2/6
f 643/2/6 644/2/6 647/2/6
f 647/2/6 644/2/6 648/2/6
f 649/2/6 650/2/6 651/2/6
f 651/2/6 650/2/6 652/2/6
f 652/2/6 650/2/6 653/2/6
f 653/4/6 654/4/6 655/4/6
f 655/4/6 654/4/6 656/4/6
f 656/3/6 657/3/6 658/3/6
f 658/3/6 657/3/6 659/3/6
f 659/3/6 657/3/6 661/3/6
f 661/3/6 657/3/6 662/3/6
f 660/4/6 661/4/6 665/4/6
f 665/4/6 661/4/6 666/4/6
f 663/2/6 664/2/6 667/2/6
f 664/2/6 665/2/6 667/2/6
f 667/2/6 665/2/6 668/2/6
f 669/4/6 670/4/6 671/4/6
f 671/4/6 670/4/6 672/4/6
f 672/6/6 673/6/6 674/6/6
f 674/6/6 673/6/6 675/6/6
f 674/4/6 675/4/6 676/4/6
f 676/4/6 675/4/6 677/4/6
f 676/6/6 677/6/6 679/6/6
f 679/6/6 677/6/6 680/6/6
f 678/4/6 679/4/6 681/4/6
f 681/4/6 679/4/6 682/4/6
f 683/4/6 684/4/6 685/4/6
f 685/4/6 684/4/6 686/4/6
f 687/4/6 688/4/6 689/4/6
f 689/4/6 688/4/6 690/4/6
f 691/4/6 692/4/6 693/4/6
f 693/4/6 692/4/6 694/4/6
f 695/5/6 696/5/6 697/5/6
f 697/5/6 696/5/6 698/5/6
f 699/5/6 700/5/6 701/5/6
f 701/5/6 700/5/6 702/5/6
f 703/3/6 704/3/6 705/3/6
f 705/3/6 704/3/6 706/3/6
